<svg
    viewBox="0 0 25 19"
    fill="none"
    xmlns="http://www.w3.org/2000/svg"
>
    <path
    d="M19.0938 4.62934C22.0708 2.23106 25.4005 5.42701 23.4894 9.29634C21.6099 12.3097 19.5501 14.4712 15.2107 11.5071C16.82 15.8759 5.95954 15.8603 6.6349 11.988C1.46153 15.6322 0.0756609 9.19872 4.0578 7.85613C1.66225 0.160458 8.91218 3.47884 10.4977 4.28072C10.6733 4.36955 10.8822 4.32419 11.0062 4.1713C12.0914 2.83271 17.1089 -2.81608 19.0209 4.60357C19.029 4.6347 19.0687 4.6495 19.0938 4.62934Z"
    fill="#020202"
    stroke="#020202"
    strokeWidth="0.905016"
    strokeLinecap="round"
    />
    <path
    d="M17.8821 15.9296C16.8348 15.1948 17.5432 13.0488 19.358 14.5402C20.0926 13.546 21.9075 14.0648 21.736 15.0288C21.7293 15.0664 21.7688 15.0994 21.8048 15.0869C23.2157 14.5949 22.4822 17.1081 21.2912 16.5157C21.3836 16.8076 21.3648 17.6493 21.1552 17.8027C20.6657 18.1609 20.1576 17.9774 19.831 17.533C19.7673 17.4464 19.688 17.071 19.7016 16.9416C19.6139 17.1031 19.2882 17.6969 19.1167 17.7115C18.7327 17.7441 18.4725 17.5237 18.1691 17.3226C17.984 17.1999 17.8263 17.0242 17.8055 16.7667C17.7912 16.5907 17.8987 16.3221 17.9659 16.1602C18.023 16.0229 18.0039 16.015 17.8821 15.9296Z"
    fill="#020202"
    stroke="#020202"
    strokeWidth="0.312283"
    strokeLinecap="round"
    />
</svg>