<svg width="400" height="400" viewBox="0 0 400 400" fill="none" xmlns="http://www.w3.org/2000/svg">
<path d="M279.94 143.182C322.077 109.236 369.206 154.472 342.156 209.24C315.554 251.891 286.4 282.486 224.98 240.531C247.757 302.368 94.0392 302.147 103.598 247.337C30.3744 298.918 10.7589 207.858 67.122 188.854C33.2155 79.9285 135.83 126.897 158.272 138.247C160.758 139.505 163.715 138.863 165.469 136.698C180.829 117.752 251.846 37.798 278.91 142.817C279.023 143.258 279.586 143.467 279.94 143.182Z" fill="#020202" stroke="#020202" stroke-width="12.8097" stroke-linecap="round"/>
<path d="M262.793 303.08C247.97 292.679 257.997 262.304 283.684 283.414C294.08 269.341 319.768 276.684 317.341 290.329C317.247 290.861 317.806 291.329 318.316 291.151C338.285 284.188 327.903 319.761 311.046 311.375C312.353 315.507 312.087 327.42 309.12 329.592C302.193 334.661 295 332.065 290.378 325.775C289.476 324.548 288.354 319.235 288.546 317.403C287.305 319.689 282.696 328.094 280.268 328.3C274.833 328.763 271.15 325.642 266.855 322.796C264.236 321.06 262.003 318.573 261.709 314.928C261.507 312.437 263.028 308.635 263.98 306.344C264.788 304.4 264.517 304.289 262.793 303.08Z" fill="#020202" stroke="#020202" stroke-width="4.42008" stroke-linecap="round"/>
</svg>
