<svg width="1589" height="308" viewBox="0 0 1440 308" fill="none" xmlns="http://www.w3.org/2000/svg">
<path d="M517.477 237.417C515.493 241.994 507.767 243.163 501.238 243.337C497.516 243.437 495.569 245.286 495.077 248.977C494.427 253.848 489.286 255.828 484.492 255.633C479.494 255.43 474.005 252.429 472.37 247.822C471.61 245.682 472.008 249.751 472.039 250.45C472.233 254.751 465.982 255.695 462.579 255.287C458.234 254.768 455.637 252.513 454.391 248.589C454.062 247.551 453.699 246.4 453.946 245.312C452.886 246.792 451.495 247.958 449.467 248.112C444.535 248.486 439.619 246.212 438.646 241.388C437.893 237.654 439.095 234.158 440.9 230.831C443.79 225.505 447.847 225.605 446.407 219.719C443.385 207.364 461.744 197.068 474.382 198.005C480.417 198.452 488.901 199.48 494.175 202.445C497.394 204.254 500.132 207.42 501.962 210.131C503.029 211.712 502.986 216.238 504.741 216.985L504.879 217.043C507.956 218.352 510.654 219.499 513.261 221.661C515.76 223.733 517.902 225.664 518.077 228.935C518.22 231.619 518.587 234.853 517.477 237.417Z" fill="#F5F5F7" stroke="#F5F5F7" stroke-width="10.9347" stroke-linecap="round"/>
<path d="M1006.48 262.417C1004.49 266.994 996.767 268.163 990.238 268.337C986.516 268.437 984.569 270.286 984.077 273.977C983.427 278.848 978.286 280.828 973.492 280.633C968.494 280.43 963.005 277.429 961.37 272.822C960.61 270.682 961.008 274.751 961.039 275.45C961.233 279.751 954.982 280.695 951.579 280.287C947.234 279.768 944.637 277.513 943.391 273.589C943.062 272.551 942.699 271.4 942.946 270.312C941.886 271.792 940.495 272.958 938.467 273.112C933.535 273.486 928.619 271.212 927.646 266.388C926.893 262.654 928.095 259.158 929.9 255.831C932.79 250.505 936.847 250.605 935.407 244.719C932.385 232.364 950.744 222.068 963.382 223.005C969.417 223.452 977.901 224.48 983.175 227.445C986.394 229.254 989.132 232.42 990.962 235.131C992.029 236.712 991.986 241.238 993.741 241.985L993.879 242.043C996.956 243.352 999.654 244.499 1002.26 246.661C1004.76 248.733 1006.9 250.664 1007.08 253.935C1007.22 256.619 1007.59 259.853 1006.48 262.417Z" fill="#F5F5F7" stroke="#F5F5F7" stroke-width="10.9347" stroke-linecap="round"/>
<path d="M739.477 202.417C737.493 206.994 729.767 208.163 723.238 208.337C719.516 208.437 717.569 210.286 717.077 213.977C716.427 218.848 711.286 220.828 706.492 220.633C701.494 220.43 696.005 217.429 694.37 212.822C693.61 210.682 694.008 214.751 694.039 215.45C694.233 219.751 687.982 220.695 684.579 220.287C680.234 219.768 677.637 217.513 676.391 213.589C676.062 212.551 675.699 211.4 675.946 210.312C674.886 211.792 673.495 212.958 671.467 213.112C666.535 213.486 661.619 211.212 660.646 206.388C659.893 202.654 661.095 199.158 662.9 195.831C665.79 190.505 669.847 190.605 668.407 184.719C665.385 172.364 683.744 162.068 696.382 163.005C702.417 163.452 710.901 164.48 716.175 167.445C719.394 169.254 722.132 172.42 723.962 175.131C725.029 176.712 724.986 181.238 726.741 181.985L726.879 182.043C729.956 183.352 732.654 184.499 735.261 186.661C737.76 188.733 739.902 190.664 740.077 193.935C740.22 196.619 740.587 199.853 739.477 202.417Z" fill="#F5F5F7" stroke="#F5F5F7" stroke-width="10.9347" stroke-linecap="round"/>
<path d="M1353.48 79.4168C1351.49 83.9942 1343.77 85.1629 1337.24 85.3374C1333.52 85.437 1331.57 87.2856 1331.08 90.9768C1330.43 95.8483 1325.29 97.8278 1320.49 97.6331C1315.49 97.4302 1310.01 94.4292 1308.37 89.822C1307.61 87.6818 1308.01 91.7508 1308.04 92.45C1308.23 96.7508 1301.98 97.6946 1298.58 97.2874C1294.23 96.7676 1291.64 94.5134 1290.39 90.5885C1290.06 89.5513 1289.7 88.4001 1289.95 87.3121C1288.89 88.792 1287.5 89.9576 1285.47 90.1117C1280.54 90.4864 1275.62 88.2124 1274.65 83.3877C1273.89 79.6539 1275.1 76.1578 1276.9 72.8314C1279.79 67.5053 1283.85 67.6055 1282.41 61.7193C1279.39 49.3635 1297.74 39.0679 1310.38 40.0051C1316.42 40.4525 1324.9 41.4799 1330.18 44.4449C1333.39 46.2543 1336.13 49.4195 1337.96 52.1314C1339.03 53.7122 1338.99 58.2383 1340.74 58.9847L1340.88 59.0433C1343.96 60.3517 1346.65 61.4994 1349.26 63.6611C1351.76 65.733 1353.9 67.6644 1354.08 70.9351C1354.22 73.6192 1354.59 76.8533 1353.48 79.4168Z" fill="#FF4C33" stroke="#FF4C33" stroke-width="10.9347" stroke-linecap="round"/>
<path d="M177.477 97.4168C175.493 101.994 167.767 103.163 161.238 103.337C157.516 103.437 155.569 105.286 155.077 108.977C154.427 113.848 149.286 115.828 144.492 115.633C139.494 115.43 134.005 112.429 132.37 107.822C131.61 105.682 132.008 109.751 132.039 110.45C132.233 114.751 125.982 115.695 122.579 115.287C118.234 114.768 115.637 112.513 114.391 108.589C114.062 107.551 113.699 106.4 113.946 105.312C112.886 106.792 111.495 107.958 109.467 108.112C104.535 108.486 99.619 106.212 98.6459 101.388C97.8928 97.6539 99.0951 94.1578 100.9 90.8314C103.79 85.5053 107.847 85.6055 106.407 79.7193C103.385 67.3635 121.744 57.0679 134.382 58.0051C140.417 58.4525 148.901 59.4799 154.175 62.4449C157.394 64.2543 160.132 67.4195 161.962 70.1314C163.029 71.7122 162.986 76.2383 164.741 76.9847L164.879 77.0433C167.956 78.3517 170.654 79.4994 173.261 81.6611C175.76 83.733 177.902 85.6644 178.077 88.9351C178.22 91.6192 178.587 94.8533 177.477 97.4168Z" fill="#F5F5F7" stroke="#F5F5F7" stroke-width="10.9347" stroke-linecap="round"/>
<path d="M120.435 183.767C153.071 157.475 189.574 192.512 168.623 234.93C148.019 267.965 125.438 291.661 77.8657 259.166C95.5079 307.061 -23.5525 306.889 -16.1486 264.438C-72.8632 304.388 -88.0561 233.86 -44.4008 219.142C-70.6627 134.776 8.81664 171.154 26.1979 179.945C28.1234 180.919 30.4138 180.422 31.7727 178.746C43.6697 164.071 98.6749 102.145 119.637 183.485C119.725 183.826 120.16 183.988 120.435 183.767Z" fill="#F5F5F7" stroke="#F5F5F7" stroke-width="9.92147" stroke-linecap="round"/>
<path d="M651.435 50.767C684.071 24.4753 720.574 59.5117 699.623 101.93C679.019 134.965 656.438 158.661 608.866 126.166C626.508 174.061 507.448 173.889 514.851 131.438C458.137 171.388 442.944 100.86 486.599 86.1415C460.337 1.7758 539.817 38.1545 557.198 46.9452C559.123 47.919 561.414 47.4218 562.773 45.7456C574.67 31.0711 629.675 -30.8553 650.637 50.4845C650.725 50.8258 651.16 50.9881 651.435 50.767Z" fill="#F5F5F7" stroke="#F5F5F7" stroke-width="9.92147" stroke-linecap="round"/>
<path d="M1439.43 155.767C1472.07 129.475 1508.57 164.512 1487.62 206.93C1467.02 239.965 1444.44 263.661 1396.87 231.166C1414.51 279.061 1295.45 278.889 1302.85 236.438C1246.14 276.388 1230.94 205.86 1274.6 191.142C1248.34 106.776 1327.82 143.154 1345.2 151.945C1347.12 152.919 1349.41 152.422 1350.77 150.746C1362.67 136.071 1417.67 74.1447 1438.64 155.485C1438.72 155.826 1439.16 155.988 1439.43 155.767Z" fill="#F5F5F7" stroke="#F5F5F7" stroke-width="9.92147" stroke-linecap="round"/>
<path d="M1231.33 158.767C1223.36 173.29 1213.35 177.07 1198.63 179.732C1200.99 186.537 1201.52 193.887 1198.97 202.055C1196.46 210.081 1188.36 210.216 1180.06 206.924C1181.45 209.084 1182.75 211.337 1183.96 213.701C1189.98 225.485 1198.08 240.734 1194.67 254.67C1192.53 263.39 1187.91 270.797 1178.52 269.324C1160.01 266.417 1139.84 255.573 1124.94 244.397C1121.14 241.55 1117.18 238.39 1113.81 234.76C1111.52 244.962 1105.09 253.17 1093.24 250.685C1074.99 246.859 1058.18 230.518 1047.86 215.35C1045.89 212.45 1044.89 207.336 1045.59 203.795C1046 201.763 1049.93 197.065 1048.22 198.161C1046.07 199.527 1043.93 202.305 1041.44 202.909C1036.51 204.107 1027.61 199.682 1023.33 197.45C1002.06 186.368 1010.34 157.657 1024.9 144.256C1028.25 141.177 1032.38 138.409 1036.72 136.075C1031.9 134.932 1026.92 132.646 1024.22 130.382C1016.86 124.226 1014.26 117.1 1014.36 107.597C1014.46 98.3084 1021.13 90.4167 1028.78 86.2236C1033.28 83.754 1040.63 81.4709 1047.27 80.7805C1040.37 75.5848 1036.7 66.126 1035.09 57.5803C1032.89 45.877 1039.08 35.872 1049.06 30.6455C1060.95 24.4253 1076 32.5976 1085.64 39.6122C1092.82 44.8381 1100.1 49.6088 1106.22 56.2078C1108.33 58.4807 1111.85 64.9056 1109.96 58.6133C1108.04 52.242 1103.73 42.7081 1109.2 36.544C1130.8 12.1721 1163.56 46.5451 1173.14 65.7407C1177.86 75.1893 1180.38 85.1005 1180.2 95.6332C1182.15 91.3566 1185.44 87.6565 1189.62 87.6433C1204.31 87.5965 1220.06 104.708 1227.08 115.971C1234.33 127.618 1238.47 145.76 1231.33 158.767Z" fill="#F5F5F7"/>
<path d="M1198.12 179.823C1213.12 177.155 1223.27 173.457 1231.33 158.767C1238.47 145.76 1234.33 127.618 1227.08 115.971C1220.06 104.708 1204.31 87.5965 1189.62 87.6433C1182.88 87.6647 1178.42 97.3002 1178.26 103.452C1178.25 103.818 1179.14 109.163 1179.54 108.245C1180.52 105.988 1179.9 101.24 1180.07 98.7312C1180.86 87.0372 1178.32 76.1103 1173.14 65.7407C1163.56 46.5451 1130.8 12.1721 1109.2 36.544C1103.73 42.7081 1108.04 52.242 1109.96 58.6133C1111.85 64.9056 1108.33 58.4807 1106.22 56.2078C1100.1 49.6088 1092.82 44.8381 1085.64 39.6122C1076 32.5976 1060.95 24.4253 1049.06 30.6455C1039.08 35.872 1032.89 45.877 1035.09 57.5803C1037.11 68.2988 1042.38 80.4538 1053.18 83.8318C1056.71 84.9362 1065.52 83.7588 1056.76 81.2454C1049.26 79.0916 1035.68 82.4387 1028.78 86.2236C1021.13 90.4167 1014.46 98.3084 1014.36 107.597C1014.26 117.1 1016.86 124.226 1024.22 130.382C1028.8 134.214 1039.87 138.107 1045.72 136.419C1048.33 135.664 1049.86 132.789 1051.66 130.933C1055.23 127.267 1050.93 130.129 1049.08 130.743C1040.84 133.478 1031.39 138.281 1024.9 144.256C1010.34 157.657 1002.06 186.368 1023.33 197.45C1027.61 199.682 1036.51 204.107 1041.44 202.909C1043.93 202.305 1046.07 199.527 1048.22 198.161C1049.93 197.065 1046 201.763 1045.59 203.795C1044.89 207.336 1045.89 212.45 1047.86 215.35C1058.18 230.518 1074.99 246.859 1093.24 250.685C1114.13 255.067 1118.17 226.204 1112.41 211.782C1112.11 211.034 1107.83 202.708 1107.15 204.509C1105.64 208.535 1104.81 212.712 1105.16 216.999C1106.15 229.232 1115.99 237.686 1124.94 244.397C1139.84 255.573 1160.01 266.417 1178.52 269.324C1187.91 270.797 1192.53 263.39 1194.67 254.67C1198.08 240.734 1189.98 225.485 1183.96 213.701C1178.7 203.4 1171.67 195.197 1163.15 187.697C1161.67 186.391 1157.98 182.854 1158.4 187.242C1159.46 198.253 1193.32 220.102 1198.97 202.055C1203.9 186.277 1197.33 173.547 1188.26 161.911" stroke="#F5F5F7" stroke-width="15.169" stroke-linecap="round"/>
<path d="M364.64 84.9572C358.984 72.5729 353.591 58.4677 342.286 51.2653C337.843 48.4343 332.546 48.4351 328.37 51.1989C324.93 53.4753 319.745 55.9346 317.503 59.9796C316.067 62.5724 314.983 67.1509 316.774 70.2203C318.349 72.9203 323.704 76.9948 318.061 73.0611C309.429 67.0427 303.661 60.4689 293.192 59.7011C287.086 59.2532 280.295 57.9043 274.495 60.097C266.885 62.9739 263.2 72.9371 258.262 79.2963C254.736 83.8368 256.287 90.3226 259.267 94.9166C263.089 100.808 268.09 108.225 273.278 112.845M273.278 112.845C273.681 113.204 274.086 113.547 274.491 113.87C275.339 114.547 277.969 116.756 278.029 118.108C278.058 118.76 277.245 117.664 277.156 117.57C276.154 116.515 274.831 115.97 273.619 115.368C273.327 115.222 273.029 115.08 272.728 114.941M273.278 112.845C274.772 107.451 276.796 102.242 278.518 97.4266C279.383 95.0083 280.355 92.1673 281.7 89.7222M273.278 112.845C273.085 113.541 272.901 114.239 272.728 114.941M272.728 114.941C266.546 112.087 258.648 110.601 252.344 111.021C241.233 111.762 231.294 122.048 224.991 131.769C220.353 138.923 218.311 148.32 218.715 157.435C219.116 166.471 222.773 173.223 228.548 179.736C231.799 183.402 236.738 187.364 240.993 188.908C242.415 189.424 244.016 190.953 245.386 191.778C247.302 192.931 249.475 193.404 251.299 194.676C255.067 197.302 262.843 196.766 266.587 195.445C271.208 193.814 275.833 192.48 280.102 189.999C285.96 186.594 288.061 180.856 291.441 174.756C293.606 170.849 297.427 167.288 298.776 162.886C298.871 162.575 298.956 162.305 299.032 162.08M272.728 114.941C272.233 116.944 271.824 118.969 271.544 121.006M299.032 162.08C299.384 161.021 299.502 160.947 299.249 162.345M299.032 162.08C293.789 155.585 292.32 145.952 292.879 136.689C293.514 126.149 295.873 111.631 306.623 110.218C307.136 110.151 307.654 110.122 308.175 110.127M299.032 162.08C299.103 162.169 299.176 162.257 299.249 162.345M299.249 162.345C299.217 162.521 299.18 162.72 299.136 162.944C298.292 167.246 297.489 170.23 301.093 173.833C302.917 175.657 304.742 177.254 306.491 179.226C309.501 182.621 311.779 185.695 315.359 188.334C318.326 190.52 321.857 191.102 325.097 192.37C327.9 193.467 330.771 194.891 333.711 194.742C342.768 194.28 354.858 192.915 361.248 185.163C367.129 178.028 366.895 170.98 365.6 161.446C364.969 156.8 363.817 151.614 362.09 147.268C361.872 146.72 359.543 140.782 359.716 140.573C360.08 140.131 372.961 148.674 374.337 149.471C378.789 152.048 382.85 154.606 386.494 158.716C390.69 163.448 395.117 165.054 400.752 164.972C405.719 164.899 408.149 163.077 411.734 159.793C429.464 143.554 409.176 104.694 394.12 92.9989C389.012 89.0317 379.887 84.3537 373.953 87.472C371.202 88.9179 368.222 87.8047 365.536 90.0348C364.486 90.9063 363.871 92.0187 363.514 93.2815M299.249 162.345C301.292 164.792 303.888 166.775 307.136 168.097C313.638 170.743 320.29 169.408 325.368 165.327M363.514 93.2815C363.11 94.7134 363.035 96.3388 363.031 98.026C363.015 105.333 365.981 113.435 369.628 120.491M363.514 93.2815C366.766 97.8421 369.623 102.564 371.999 106.849C372.197 107.205 372.848 108.445 373.725 110.212M363.514 93.2815C356.453 83.377 347.533 74.2328 337.644 71.9766C327.705 69.709 324.474 83.2756 322.845 92.2974C321.695 98.6731 321.243 109.015 324.582 115.989M369.628 120.491C371.261 123.652 373.032 126.603 374.732 129.179C375.559 130.433 376.65 132.01 377.92 133.657M369.628 120.491C368.179 114.962 368.284 109.827 370.856 109.776C371.781 109.758 372.745 109.915 373.725 110.212M369.628 120.491C371.102 126.119 374.188 132.157 377.92 133.657M377.92 133.657C381.918 138.841 387.7 144.716 392.692 143.381C394.136 142.995 394.112 141.167 394.093 139.71L394.092 139.701C393.998 132.527 390.827 126.041 386.765 120.524C383.891 116.62 378.608 111.688 373.725 110.212M377.92 133.657C378.599 133.93 379.299 134.053 380.015 133.996C384.719 133.621 377.326 117.469 373.725 110.212M324.582 115.989C324.715 116.266 324.853 116.537 324.997 116.802M324.582 115.989C324.714 115.821 324.848 115.657 324.984 115.496M324.582 115.989C324.241 116.425 323.914 116.885 323.6 117.366M324.997 116.802C326.599 119.745 328.956 121.981 332.332 122.889C336.89 124.114 339.445 120.819 340.848 116.235M324.997 116.802C324.99 116.368 324.986 115.932 324.984 115.496M324.997 116.802C325.008 117.425 325.024 118.046 325.046 118.665M340.848 116.235C342.463 110.958 342.55 103.973 342.403 100.214C342.188 94.6824 339.414 81.2183 332.711 81.0983C330.379 81.0566 329.373 83.4928 328.786 85.7505C326.406 94.9072 324.947 105.418 324.984 115.496M340.848 116.235C343.437 119.511 345.301 124.035 346.297 127.574C347.955 133.466 348.878 139.864 349.301 145.944C349.367 146.889 349.701 150.571 348.615 151.619C346.312 153.843 342.588 152.024 339.158 149.239M340.848 116.235C339.462 114.48 337.867 113.084 336.087 112.389C331.416 110.566 327.767 112.209 324.984 115.496M325.046 118.665C325.09 119.885 325.157 121.095 325.248 122.293C325.265 122.508 325.283 122.723 325.301 122.937M325.046 118.665C332.811 126.033 338.304 137.761 339.158 149.239M325.046 118.665C324.572 118.216 324.09 117.782 323.6 117.366M325.301 122.937C325.898 129.688 327.74 135.86 331.63 141.296C332.175 142.058 333.052 143.158 334.138 144.376M325.301 122.937C330.527 128.614 333.856 136.449 334.138 144.376M325.301 122.937C324.31 121.86 323.25 120.86 322.13 119.953M334.138 144.376C335.547 145.957 337.31 147.738 339.158 149.239M334.138 144.376C334.259 147.794 333.813 151.23 332.708 154.518C331.195 159.021 328.6 162.73 325.368 165.327M339.158 149.239C339.346 151.778 339.308 154.305 339.017 156.77C338.122 164.345 349.869 183.722 343.289 179.226C343.139 179.124 325.513 165.433 325.368 165.327M323.6 117.366C323.072 118.174 322.583 119.042 322.13 119.953M323.6 117.366C323.069 116.916 322.529 116.485 321.98 116.077C317.997 113.111 312.953 110.173 308.175 110.127M322.13 119.953C319.578 125.076 318.174 131.541 317.649 136.246C316.536 146.223 316.95 159.152 325.368 165.327M322.13 119.953C321.796 119.682 321.456 119.42 321.112 119.166C317.06 116.179 311.857 114.443 307.586 115.86M308.175 110.127C308.094 112.058 307.892 113.971 307.586 115.86M308.175 110.127C308.308 106.91 308.104 103.646 307.481 100.371C305.69 90.9603 300.951 81.9167 292.801 78.5577L292.732 78.5293C290.274 77.5161 284.226 75.0222 283.079 78.9055C282.182 81.9416 281.69 85.7386 281.7 89.7222M307.586 115.86C305.668 116.497 303.937 117.77 302.584 119.852C301.962 120.808 297.704 133.553 300.93 132.92C303.21 132.472 304.744 126.645 305.389 124.703C306.34 121.842 307.097 118.883 307.586 115.86ZM281.7 89.7222C281.72 98.2998 284.064 107.742 289.698 112.316C293.197 115.156 296.681 111.755 298.596 108.509C301.231 104.044 300.308 97.0115 298.358 92.0678C296.645 87.7233 292.927 83.548 288.644 84.0407C285.48 84.4047 283.319 86.776 281.7 89.7222ZM271.544 121.006C270.849 126.044 270.939 131.151 272.443 136.167C273.92 141.095 279.469 150.621 284.929 147.27C291.214 143.413 283.084 129.971 279.964 126.492C277.602 123.857 274.578 121.83 271.544 121.006ZM271.544 121.006C267.701 119.963 263.842 120.85 261.289 124.879C259.185 128.2 257.911 132.465 257.333 137.064M257.333 137.064C256.32 145.115 257.438 154.185 259.966 160.991C261.005 163.788 263.562 167.79 266.438 169.743M257.333 137.064C262.941 138.452 268.241 142.255 271.8 147.844C275.642 153.879 277.926 163.997 272.867 169.388C270.874 171.513 268.568 171.19 266.438 169.743M257.333 137.064C253.435 136.1 249.389 136.301 245.674 137.88C238.342 140.996 237.781 151.661 238.387 159.874C238.632 163.195 239.068 167.28 241.371 169.738C245.633 174.287 251.619 177.078 257.067 175.68C260.155 174.888 264.238 172.918 266.438 169.743M266.438 169.743C267.049 168.862 267.514 167.887 267.773 166.818M347.374 60.1501C347.529 60.3335 347.683 60.5118 347.838 60.6849M347.838 60.6849C351.691 65.008 355.437 66.1555 358.993 65.3343M347.838 60.6849C350.345 61.5517 352.707 62.5975 354.457 63.2682C356.025 63.869 357.538 64.553 358.993 65.3343M347.838 60.6849C343.583 59.2137 338.91 58.2581 336.097 60.5266M358.993 65.3343C363.424 64.3111 367.56 60.2323 371.241 55.4316C374.633 51.0087 346.722 53.6661 346.975 47.8597C347.216 42.3491 349.13 34.0192 352.18 29.9114C355.423 25.5437 357.075 24.2515 361.592 26.9968L361.751 27.0937C365.941 29.6403 369.888 32.0385 371.388 37.5963C372.877 43.1127 372.309 46.2464 369.517 50.7876C367.735 53.6855 395.672 51.5112 392.278 51.9902C382.586 53.3579 370.957 57.7236 365.202 67.0847C364.856 67.6471 364.532 68.2117 364.223 68.778M358.993 65.3343C360.827 66.3186 362.571 67.4572 364.223 68.778M364.223 68.778C362.914 71.1776 361.877 73.6078 360.621 76.0344C359.627 77.9527 360.725 79.5963 360.858 81.6376C361.115 85.6136 373.44 79.1975 370.315 75.0712C368.45 72.6086 366.418 70.5325 364.223 68.778ZM246.63 231.872C246.784 232.055 246.939 232.234 247.093 232.407M247.093 232.407C250.946 236.73 254.692 237.877 258.249 237.056M247.093 232.407C249.6 233.273 251.962 234.319 253.713 234.99C255.281 235.591 256.793 236.275 258.249 237.056M247.093 232.407C242.838 230.935 247.322 217.669 244.51 219.938M258.249 237.056C262.679 236.033 256.432 218.22 260.113 213.419C263.504 208.996 265.337 205.492 265.59 199.685C265.831 194.175 278.129 199.579 281.179 195.471C284.422 191.103 286.074 189.811 290.59 192.557L290.75 192.653C294.94 195.2 298.887 197.598 300.387 203.156C301.876 208.672 301.307 211.806 298.516 216.347C296.734 219.245 296.272 209.519 292.879 209.998C283.187 211.366 270.213 229.445 264.458 238.806C264.112 239.369 263.788 239.933 263.479 240.5M258.249 237.056C260.083 238.04 261.827 239.179 263.479 240.5M263.479 240.5C262.169 242.899 261.133 245.33 259.876 247.756C258.882 249.674 259.981 251.318 260.113 253.359C260.37 257.335 272.695 250.919 269.57 246.793C267.705 244.33 265.673 242.254 263.479 240.5Z" stroke="#FF4C33" stroke-width="26.5283" stroke-linecap="round"/>
<path d="M864.686 163.548C851.849 166.308 825.113 155.655 817.202 145.782C816.475 144.874 814.677 148.861 814.031 149.861C811.633 153.572 808.133 156.215 804.525 158.772C799.482 162.348 792.482 161.803 786.642 161.348L786.535 161.34C779.572 160.797 773.725 159.4 768.918 154.212C764.08 148.992 761.433 143.803 762.276 136.772C763.222 128.881 769.803 125.183 776.883 123.365C775.145 121.795 774.047 119.231 773.522 116.787C770.449 102.496 779.619 86.4621 791.952 79.7879C798.121 76.4495 805.433 74.1254 812.478 74.7239C820.278 75.3866 830.237 77.5285 836.471 82.7581C837.76 83.8396 834.293 78.4609 833.765 77.7374C829.632 72.0685 826.081 66.1558 825.849 58.909C825.69 53.9349 829.762 47.5621 833.628 44.6579C838.882 40.7118 845.46 38.9972 851.963 39.4868C869.453 40.8036 887.014 47.4134 897.714 62.1439C901.518 67.3798 903.861 73.7508 905.208 80.015C905.541 81.5652 905.967 82.8963 906.047 84.1793C908.557 83.0637 911.473 82.5139 913.64 82.2502C923.048 81.1049 932.783 82.5333 940.157 88.9103C947.123 94.9351 955.438 100.138 959.18 108.965C962.75 117.385 955.693 129.962 949.973 135.74C941.431 144.37 929.783 146.488 918.027 147.2C910.611 147.648 903.23 148.2 896.018 146.04C894.464 145.575 892.74 144.714 891.554 143.602C891.247 143.314 890.654 142.232 890.769 142.976C891.399 147.062 888.034 150.998 885.178 153.286C879.221 158.059 872.155 161.942 864.686 163.548Z" fill="#F5F5F7" stroke="#F5F5F7" stroke-width="38.0655" stroke-linecap="round"/>
</svg>
