<svg
  viewBox="-215 0 1878 638"
  fill="none"
  xmlns="http://www.w3.org/2000/svg"
>
  <path
    d="M482.967 129.892C580.281 12.9366 759.995 194.892 724.011 390.014C679.674 539.388 739.426 702.343 580.522 531.915C558.114 637.911 56.2389 652.735 0.378456 503.862C-175.472 672.253 -263.844 285.961 -111.561 232.698C-288.147 -104.339 26.7914 95.5261 26.7914 95.5261C26.7914 95.5261 253.791 -75.1592 482.967 129.892Z"
    fill="#ff4c33"
    stroke="#ff4c33"
    stroke-width="50"
    stroke-linecap="round"
  />
  <path
    d="M1397.58 157.827C1497.55 49.4159 1672.81 217.04 1632.28 397.51C1584.48 535.721 1640.35 686.158 1485.6 529.124C1460.73 627.169 1039.47 626.678 901.786 545.532C722.153 701.732 563.098 272.136 716.483 222.427C547.982 -88.5538 1041.84 83.6448 1041.84 83.6448C1041.84 83.6448 1198.6 -91.2791 1397.58 157.827Z"
    fill="#ff4c33"
    stroke="#ff4c33"
    stroke-width="50"
    stroke-linecap="round"
  />
</svg>